<svg width="64" height="64" viewBox="0 0 64 64" fill="none" xmlns="http://www.w3.org/2000/svg">
<path d="M41.5339 33.1233L43.9837 31.7121V17.9051L41.5339 19.3163V33.1233Z" fill="#222428"/>
<path d="M32.0508 38.5987L34.5006 37.1875V28.8446L32.0508 30.2558V38.5987Z" fill="#222428"/>
<path d="M36.7924 35.8554L39.2422 34.4442V20.6371L36.7924 22.0483V35.8554Z" fill="#222428"/>
<path d="M43.9838 17.9051L41.534 19.3163L29.4994 12.3733L31.9718 10.9395L43.9838 17.9051Z" fill="#222428"/>
<path d="M39.2422 20.6372L36.7924 22.0484L24.7578 15.1053L27.2302 13.6716L39.2422 20.6372Z" fill="#222428"/>
<path d="M34.5006 23.3579L32.0508 24.7804L20.0162 17.8374L22.4886 16.4036L34.5006 23.3579Z" fill="#222428"/>
<path d="M20.0614 31.667L32.0508 24.7804L29.5897 23.3579L20.0614 28.8333V31.667Z" fill="#222428"/>
<path d="M20.0162 17.8373L20.0614 26.7786L22.4322 25.5142V19.2259L20.0162 17.8373Z" fill="#222428"/>
<path d="M20.0614 31.667L32.0508 38.5987V35.765L22.4322 30.3122L20.0614 31.667Z" fill="#222428"/>
<path d="M24.7578 15.1053V16.4826L27.1851 17.8938V16.5052L24.7578 15.1053Z" fill="#222428"/>
<path d="M29.4994 12.362V13.7506L31.9379 15.1505V13.7732L29.4994 12.362Z" fill="#222428"/>
<path d="M41.5339 33.1233L40.1453 32.3895V29.759L41.5339 30.459V33.1233Z" fill="#222428"/>
<path d="M36.7924 35.8554L35.3925 35.1216V32.4911L36.7924 33.1911V35.8554Z" fill="#222428"/>
<path d="M25.2771 53.0605H21.6871C20.8178 53.0605 20.1066 52.3493 20.1066 51.48V44.8982C20.1066 44.0289 20.8178 43.3177 21.6871 43.3177H28.2689C29.1381 43.3177 29.8494 44.0289 29.8494 44.8982V50.1478V50.7123C29.8494 51.0171 29.601 51.2768 29.2849 51.2768C28.9801 51.2768 28.7204 51.0284 28.7204 50.7123V50.1478V45.1917C28.7204 44.774 28.3817 44.4353 27.964 44.4353H21.9693C21.5516 44.4353 21.2129 44.774 21.2129 45.1917V51.1864C21.2129 51.6042 21.5516 51.9428 21.9693 51.9428H25.2659H25.6949C25.9997 51.9428 26.2593 52.1912 26.2593 52.5073C26.2593 52.8121 26.011 53.0718 25.6949 53.0718H25.2771V53.0605Z" fill="#222428"/>
<path d="M31.5202 43.3064H35.0989C35.9682 43.3064 36.6795 44.0176 36.6795 44.8869V51.48C36.6795 52.3493 35.9682 53.0605 35.0989 53.0605H28.5172C27.6479 53.0605 26.9366 52.3493 26.9366 51.48V46.2304V45.6659C26.9366 45.3611 27.185 45.1014 27.5011 45.1014C27.8059 45.1014 28.0656 45.3498 28.0656 45.6659V46.2304V51.1752C28.0656 51.5929 28.4043 51.9316 28.822 51.9316H34.8167C35.2344 51.9316 35.5731 51.5929 35.5731 51.1752V45.1804C35.5731 44.7627 35.2344 44.4241 34.8167 44.4241H31.5315H31.1025C30.7976 44.4241 30.538 44.1757 30.538 43.8596C30.538 43.5435 30.7864 43.2951 31.1025 43.2951H31.5202V43.3064Z" fill="#222428"/>
<path d="M11.0524 51.9316H18.9889V53.0605H9.46057V51.9316V51.8525L17.4761 42.979H17.4196H9.46057V41.8614H18.9889V42.8435V42.979L10.8943 51.9316H11.0524Z" fill="#222428"/>
<path d="M45.4063 51.209C45.2482 51.5816 45.0337 51.8864 44.7515 52.1348C44.4692 52.3831 44.1305 52.5751 43.7467 52.6993C43.3516 52.8234 42.9226 52.8912 42.4371 52.8912H38.3052V41.9968H42.3129C42.7645 41.9968 43.1822 42.0646 43.5661 42.1887C43.9499 42.3129 44.2886 42.5049 44.5708 42.7419C44.8531 42.9903 45.0676 43.2838 45.2256 43.6338C45.3837 43.9838 45.4627 44.3902 45.4627 44.8305C45.4627 45.4062 45.3159 45.9143 45.0111 46.3546C44.7063 46.7949 44.2886 47.111 43.758 47.2803C44.345 47.4835 44.8079 47.8109 45.1353 48.2738C45.4627 48.7366 45.6208 49.2785 45.6208 49.9108C45.632 50.4188 45.553 50.8478 45.4063 51.209ZM44.4467 43.8822C44.3225 43.6225 44.1418 43.3967 43.9273 43.2274C43.7128 43.058 43.4532 42.9339 43.1597 42.8548C42.8661 42.7758 42.55 42.7306 42.2226 42.7306H39.1293V46.9529H42.2226C42.55 46.9529 42.8548 46.9077 43.1597 46.8287C43.4532 46.7497 43.7128 46.6255 43.9273 46.4562C44.1418 46.2868 44.3225 46.0723 44.4467 45.8014C44.5708 45.5417 44.6386 45.2143 44.6386 44.8418C44.6386 44.4692 44.5708 44.1418 44.4467 43.8822ZM44.1305 48.2851C43.679 47.8899 43.0806 47.698 42.3355 47.698H39.118V52.1574H42.3355C43.0806 52.1574 43.679 51.9654 44.1305 51.5703C44.5821 51.1752 44.8079 50.6333 44.8079 49.922C44.8079 49.2221 44.5821 48.6689 44.1305 48.2851Z" fill="#222428"/>
<path d="M42.4258 53.0605H38.1245V41.8388H42.3016C42.7645 41.8388 43.2048 41.9065 43.6112 42.042C44.0176 42.1775 44.3789 42.3694 44.6724 42.629C44.9659 42.8887 45.203 43.2048 45.3724 43.5774C45.5417 43.9499 45.6207 44.3789 45.6207 44.8418C45.6207 45.4401 45.4627 45.982 45.1466 46.4562C44.8982 46.8174 44.5821 47.0997 44.1983 47.2916C44.6498 47.5061 45.0111 47.8109 45.282 48.1947C45.632 48.6802 45.8014 49.2672 45.8014 49.922C45.8014 50.4301 45.7223 50.8816 45.5643 51.2655C45.4062 51.6493 45.1691 51.988 44.8756 52.2477C44.5821 52.5073 44.2208 52.7105 43.8031 52.846C43.3854 52.9928 42.9225 53.0605 42.4258 53.0605ZM38.4632 52.7331H42.4371C42.9 52.7331 43.3177 52.6767 43.6902 52.5525C44.0628 52.4283 44.3789 52.2477 44.6385 52.0219C44.8982 51.7848 45.1014 51.5026 45.2482 51.1526C45.3949 50.8026 45.4627 50.3962 45.4627 49.9333C45.4627 49.335 45.3046 48.8157 44.9998 48.3867C44.695 47.9577 44.2547 47.6416 43.7015 47.4496L43.2386 47.2916L43.7015 47.1448C44.1983 46.9868 44.5821 46.6932 44.8643 46.2868C45.1466 45.8691 45.2933 45.395 45.2933 44.8531C45.2933 44.4241 45.2143 44.0515 45.0675 43.7128C44.9208 43.3854 44.7176 43.1032 44.4466 42.8774C44.187 42.6516 43.8709 42.471 43.4983 42.3468C43.1258 42.2226 42.7193 42.1662 42.2903 42.1662H38.4406V52.7331H38.4632ZM42.3355 52.3267H38.9599V47.5287H42.3355C43.1145 47.5287 43.758 47.7432 44.2321 48.1609C44.7176 48.5899 44.9659 49.1769 44.9659 49.9333C44.9659 50.6784 44.7176 51.2768 44.2321 51.7058C43.758 52.1122 43.1258 52.3267 42.3355 52.3267ZM39.2873 51.9993H42.3355C43.0354 51.9993 43.5999 51.8187 44.0176 51.4461C44.4353 51.0848 44.6385 50.5881 44.6385 49.922C44.6385 49.256 44.4353 48.7592 44.0176 48.398C43.5999 48.0367 43.0354 47.8448 42.3355 47.8448H39.2873V51.9993ZM42.2113 47.1222H38.9599V42.5726H42.2113C42.55 42.5726 42.8774 42.6177 43.1935 42.6968C43.5096 42.7871 43.7918 42.9226 44.0176 43.1032C44.2547 43.2838 44.4466 43.5209 44.5821 43.8144C44.7176 44.0967 44.7853 44.4466 44.7853 44.8531C44.7853 45.2482 44.7176 45.5982 44.5821 45.8917C44.4466 46.1739 44.2547 46.4223 44.0176 46.6029C43.7805 46.7836 43.4983 46.919 43.1935 47.0094C42.8887 47.0771 42.5613 47.1222 42.2113 47.1222ZM39.2873 46.7949H42.2113C42.5274 46.7949 42.8209 46.761 43.1032 46.682C43.3741 46.6029 43.6225 46.49 43.8257 46.332C44.0289 46.1852 44.187 45.982 44.2999 45.7449C44.4128 45.5079 44.4805 45.203 44.4805 44.8531C44.4805 44.5031 44.424 44.1983 44.2999 43.9612C44.187 43.7241 44.0289 43.5209 43.8257 43.3741C43.6225 43.2161 43.3854 43.1032 43.1032 43.0242C42.8209 42.9451 42.5274 42.9113 42.2113 42.9113H39.2873V46.7949Z" fill="#222428"/>
<path d="M53.9072 51.0736C53.6927 51.4574 53.4331 51.7848 53.1169 52.0557C52.8008 52.3267 52.4396 52.5299 52.0332 52.6767C51.6267 52.8234 51.1865 52.8912 50.7123 52.8912C50.2043 52.8912 49.7188 52.8009 49.2559 52.6089C48.7931 52.417 48.3867 52.1461 48.0367 51.7961C47.7996 51.559 47.6077 51.3106 47.4722 51.051C47.3367 50.7913 47.2351 50.4978 47.1674 50.1704C47.0997 49.843 47.0658 49.4592 47.0545 49.0076C47.0432 48.5673 47.0432 48.048 47.0432 47.4384C47.0432 46.84 47.0432 46.3207 47.0545 45.8804C47.0658 45.4401 47.0997 45.0563 47.1674 44.7289C47.2351 44.4015 47.3367 44.108 47.4722 43.837C47.6077 43.5773 47.7996 43.329 48.0367 43.0806C48.3867 42.7306 48.7931 42.4597 49.2559 42.2678C49.7188 42.0759 50.2043 41.9855 50.7123 41.9855C51.1977 41.9855 51.638 42.0533 52.0444 42.2C52.4509 42.3468 52.8121 42.55 53.1169 42.821C53.4331 43.0919 53.6927 43.4193 53.8959 43.8031C54.1104 44.187 54.2572 44.6273 54.3475 45.1014H53.5234C53.3653 44.3563 53.0379 43.7693 52.5412 43.3403C52.0444 42.9113 51.4348 42.6968 50.7123 42.6968C50.3285 42.6968 49.9672 42.7645 49.6172 42.9113C49.2672 43.0467 48.9511 43.2612 48.6802 43.5322C48.4883 43.7241 48.3415 43.9273 48.2286 44.1418C48.1157 44.3563 48.0367 44.616 47.9802 44.9095C47.9238 45.203 47.8899 45.553 47.8786 45.9594C47.8673 46.3659 47.8561 46.8513 47.8561 47.4271C47.8561 48.0028 47.8673 48.4883 47.8786 48.8947C47.8899 49.3011 47.9238 49.6511 47.9802 49.9446C48.0367 50.2381 48.1157 50.4978 48.2286 50.7123C48.3415 50.9268 48.4883 51.13 48.6802 51.3219C48.9511 51.5929 49.2559 51.7961 49.6172 51.9429C49.9672 52.0783 50.3285 52.1574 50.7123 52.1574C51.4348 52.1574 52.0444 51.9429 52.5525 51.5138C53.0605 51.0848 53.3879 50.4978 53.5572 49.7527H54.3588C54.2685 50.2494 54.1104 50.6897 53.9072 51.0736Z" fill="#222428"/>
<path d="M50.7123 53.0605C50.1817 53.0605 49.6737 52.9589 49.1882 52.767C48.7141 52.575 48.2851 52.2815 47.9125 51.9202C47.6642 51.6719 47.461 51.4009 47.3255 51.1413C47.1787 50.8703 47.0771 50.5655 47.0094 50.2155C46.9416 49.8769 46.9078 49.4817 46.8965 49.0301C46.8852 48.5899 46.8852 48.0592 46.8852 47.4609C46.8852 46.8626 46.8852 46.332 46.8965 45.903C46.9078 45.4627 46.9416 45.0675 47.0094 44.7289C47.0771 44.3902 47.1787 44.0741 47.3255 43.8031C47.4722 43.5322 47.6642 43.2612 47.9238 43.0129C48.2851 42.6516 48.7141 42.3581 49.1995 42.1661C49.685 41.9742 50.193 41.8726 50.7236 41.8726C51.2203 41.8726 51.6832 41.9516 52.1122 42.0984C52.5299 42.2452 52.9138 42.471 53.2412 42.7532C53.5686 43.0354 53.8395 43.3854 54.054 43.7805C54.2685 44.1757 54.4265 44.6385 54.5169 45.124L54.5507 45.3159H53.3992L53.3766 45.1917C53.2299 44.4918 52.9138 43.9273 52.4396 43.5209C51.9767 43.1145 51.401 42.9113 50.7123 42.9113C50.3511 42.9113 50.0011 42.979 49.6737 43.1145C49.3463 43.2499 49.0528 43.4419 48.7931 43.6902C48.6125 43.8709 48.477 44.0628 48.3754 44.2547C48.2738 44.4579 48.1948 44.695 48.1383 44.9772C48.0819 45.2595 48.048 45.6094 48.0367 46.0046C48.0254 46.411 48.0141 46.8964 48.0141 47.4609C48.0141 48.0254 48.0254 48.5221 48.0367 48.9172C48.048 49.3124 48.0819 49.6624 48.1383 49.9446C48.1948 50.2268 48.2738 50.4639 48.3754 50.6671C48.477 50.8703 48.6238 51.0622 48.7931 51.2316C49.0528 51.4912 49.3463 51.6832 49.6737 51.8074C50.0011 51.9428 50.3511 52.0106 50.7123 52.0106C51.3897 52.0106 51.9767 51.8074 52.4509 51.4009C52.9251 50.9945 53.2412 50.43 53.3992 49.7301L53.4218 49.6059H54.5394L54.5056 49.7978C54.4153 50.2946 54.2572 50.7461 54.0427 51.1413C53.8282 51.5477 53.546 51.8864 53.2186 52.1686C52.8912 52.4509 52.5073 52.6654 52.0896 52.8234C51.6606 52.9815 51.1978 53.0605 50.7123 53.0605ZM50.7123 42.1661C50.2269 42.1661 49.7527 42.2565 49.3124 42.4371C48.8721 42.6177 48.477 42.8774 48.1496 43.2161C47.9238 43.4419 47.7432 43.6789 47.619 43.9273C47.4948 44.1757 47.3932 44.4579 47.3368 44.774C47.269 45.0901 47.2352 45.474 47.2239 45.8917C47.2126 46.3207 47.2126 46.8513 47.2126 47.4496C47.2126 48.048 47.2126 48.5673 47.2239 49.0076C47.2352 49.4366 47.269 49.8204 47.3368 50.1365C47.3932 50.4526 47.4948 50.7349 47.619 50.9719C47.7432 51.209 47.9238 51.4461 48.1496 51.6832C48.4883 52.0219 48.8721 52.2815 49.3124 52.4621C49.7527 52.6428 50.2269 52.7331 50.7123 52.7331C51.1639 52.7331 51.5816 52.6654 51.9767 52.5299C52.3606 52.3944 52.7106 52.1912 53.0041 51.9315C53.3089 51.6719 53.5573 51.3558 53.7605 50.9945C53.9298 50.6784 54.0653 50.3171 54.1556 49.9333H53.6814C53.5008 50.6445 53.1621 51.2316 52.6541 51.6493C52.1235 52.1009 51.4687 52.338 50.7123 52.338C50.3172 52.338 49.9221 52.2589 49.5495 52.1122C49.177 51.9654 48.8496 51.7509 48.5673 51.4574C48.3641 51.2542 48.2061 51.0397 48.0819 50.8026C47.969 50.5768 47.8787 50.3059 47.8222 49.9897C47.7658 49.6849 47.7319 49.3237 47.7093 48.9172C47.698 48.5108 47.6867 48.0141 47.6867 47.4496C47.6867 46.8739 47.698 46.3884 47.7093 45.982C47.7206 45.5643 47.7658 45.203 47.8222 44.9095C47.8787 44.6047 47.969 44.3224 48.0819 44.0966C48.1948 43.8709 48.3641 43.6451 48.5673 43.4419C48.8496 43.1596 49.1882 42.9338 49.5495 42.7871C49.9221 42.6403 50.3059 42.5613 50.7123 42.5613C51.4687 42.5613 52.1235 42.7871 52.6428 43.2499C53.1396 43.6789 53.4782 44.2547 53.6476 44.9659H54.1556C54.0653 44.5821 53.9298 44.2208 53.7605 43.9047C53.5573 43.5322 53.3089 43.2161 53.0154 42.9677C52.7218 42.708 52.3719 42.5161 51.988 42.3694C51.6042 42.2452 51.1752 42.1661 50.7123 42.1661Z" fill="#222428"/>
</svg>
